<svg xmlns="http://www.w3.org/2000/svg" width="1281" height="628" overflow="hidden"><defs><clipPath id="a"><path d="M-1 45h1281v628H-1z"/></clipPath></defs><g fill-rule="evenodd" clip-path="url(#a)" transform="translate(1 -45)"><path fill="#094" d="M127.5 387C85.265 387 51 421.265 51 463.5c0 42.236 34.265 76.5 76.5 76.5 42.236 0 76.5-34.264 76.5-76.5 0-42.235-34.264-76.5-76.5-76.5m66.873 100.827s-.414 2.174-1.863 1.863c-1.45-.207-1.243-2.277-1.243-2.277-.621-10.042-5.383-19.565-13.664-25.569-14.079-10.145-33.022-6.004-42.339 9.316-9.317 15.321-28.261 19.565-42.443 9.421-14.078-10.145-16.977-30.228-8.592-46.066 4.038-7.557 8.075-12.526 13.975-17.081 19.979-15.631 48.965-17.287 70.807-1.656 22.256 16.149 31.677 45.341 25.362 72.049M777 506.39H663.669V468h-34.37v38.39H517V539h260ZM648.051 555c-32 0-58.051 26.172-58.051 58.448C590 645.724 615.949 672 648.051 672c32 0 57.949-26.172 57.949-58.552.102-32.276-25.846-58.448-57.949-58.448m0 82.138c-13.333 0-24.205-10.966-24.205-24.414 0-13.448 10.872-24.414 24.205-24.414 13.333 0 24.205 10.966 24.205 24.414 0 13.552-10.872 24.414-24.205 24.414M1195.05 555c-32 0-58.05 26.172-58.05 58.448 0 32.38 25.95 58.552 58.05 58.552 32 0 57.95-26.172 57.95-58.552.1-32.276-25.95-58.448-57.95-58.448m0 82.862c-13.33 0-24.2-10.965-24.2-24.414 0-13.551 10.87-24.414 24.2-24.414s24.21 10.966 24.21 24.414c0 13.449-10.88 24.414-24.21 24.414M1250.03 443.37v-44.858c0-3.411-2.89-6.512-6.29-6.512h-31.87v.413c2.38 0 4.33 1.964 4.33 4.445v78.141c-3.09 16.848-35.78 15.504-35.78 15.504h-73.62c-3.5 0-6.08-3.101-6.08-5.995v-52.714h85.58v-33.799H1067v98.296c0 15.297 12.37 28.011 27.63 28.011h85.79c23.51 0 34.13-7.235 35.78-8.476V555h33.83v-77.727H1279v-33.799h-28.97ZM144.49 672v-76.444H256V563H0v32.556h110.171V672"/><path fill="#E33B3B" d="M1140.64 343.747C1044.07 165.739 855.882 45 639.527 45c-216.458 0-404.544 120.533-501.011 298.541 0 0-.516 1.137-.516 2.17 0 .621.103 1.344.825 1.861 2.064 1.447 4.127-1.24 4.127-1.24C259.951 210.81 438.854 152.714 639.424 152.714c200.673 0 379.786 58.303 496.786 193.928 0 0 1.65 1.861 3.5 1.034.93-.414 1.24-1.138 1.24-1.758.21-1.034-.31-2.171-.31-2.171"/><path fill="#094" d="M1014.54 444.079v-44.84c0-3.409-2.89-6.509-6.3-6.509h-32.045v.413a4.411 4.411 0 0 1 4.445 4.443v163.14h-83.827v-36.678c26.151-7.646 45.376-31.822 45.376-60.545 0-10.538-2.584-20.457-7.235-29.239h25.117v-33.785h-64.188v-23.97c0-3.409-2.894-6.509-6.305-6.509H857.64v.413c2.377 0 4.444 1.963 4.444 4.443v25.623H798v33.785h25.117c-4.548 8.782-7.132 18.701-7.132 29.239 0 29.033 19.639 53.416 46.409 60.752v36.368h-63.36v32.648h181.812V672h33.904V477.865H1044v-33.786h-29.46ZM850.094 463.4c0-16.014 13.024-28.929 28.941-28.929 15.918 0 28.942 12.915 28.942 28.929s-13.024 28.929-28.942 28.929c-16.021.104-28.941-12.915-28.941-28.929M741.281 398H546v33.711h168.195V478H748v-74.021c0-3.299-3.308-5.979-6.719-5.979M487.589 392h-32.053v.516c2.481 0 4.446 2.479 4.446 5.578V548.37c-6.308 14.15-37.224 13.324-38.775 13.324H318.739v-51.951h81.272a6.098 6.098 0 0 0 5.893-5.888v-26.75h-.103v-71.988c0-3.305-2.688-5.887-5.997-5.887H278.31v32.534h94.817v45.341H278v90.579c0 15.286 12.201 27.887 27.401 28.713H425.55c20.576-.723 31.227-6.094 34.535-8.159V672H494V400.263c-.207-4.338-2.999-8.263-6.411-8.263"/></g></svg>