<svg xmlns="http://www.w3.org/2000/svg" width="600" height="600.265"><g transform="translate(66.285 -813.453) scale(1.3819)"><circle cx="169.127" cy="805.744" r="215.987" fill="none" stroke="#5b2700" stroke-width="2.212"/><circle cx="169.127" cy="805.744" r="215.987" fill="#ffcb0c" stroke="#5b2700" stroke-width=".135"/><g fill="#ffdd0c" stroke="#5b2700"><path stroke-width="1.81706" d="M199.754 641.33c6.456-5.665 12.68-5.636 16.036-1.81 3.357 3.826 2.576 10-3.88 15.665-5.172 4.537-15.577 8.362-19.5 4.848-3.692-3.305 3.029-14.918 7.344-18.703z"/><path stroke-width="1.3524118" d="M202.156 644.276c6.076-5.33 10.97-6.398 12.943-4.15 1.973 2.25.277 6.963-5.798 12.293-4.866 4.27-13.728 8.927-16.202 7.009-2.327-1.804 4.997-11.59 9.057-15.152z"/><path stroke-width="1.2979" d="M187.67 623.071c30.582 1.652 44.551 11.322 72.687 27.091l-2.473 4.678c-34.21-14.368-46.115-20.958-70.214-31.769z"/><path stroke-width="1.0383200000000001" d="M187.67 623.071c35.642 6.823 42.715 13.906 71.75 28.695l-1.982 1.154c-32.364-15.466-36.621-18.322-69.768-29.849z"/><path stroke-width="1.81706" d="M220.416 649.99c6.65-5.436 12.869-5.19 16.09-1.249 3.221 3.94 2.225 10.084-4.425 15.52-5.326 4.353-15.859 7.813-19.657 4.165-3.574-3.433 3.548-14.804 7.992-18.436z"/><path stroke-width="1.3524118" d="M222.715 653.018c6.257-5.115 11.186-6.012 13.08-3.695 1.893 2.316.034 6.968-6.224 12.083-5.012 4.096-14.031 8.442-16.437 6.439-2.263-1.885 5.4-11.41 9.58-14.827z"/></g><g fill="#ffdd0c" stroke="#5b2700"><path stroke-width="1.81706" d="M223.425 607.569c8.252 2.384 11.582 7.642 10.17 12.531-1.414 4.89-7.035 7.56-15.286 5.176-6.61-1.91-15.44-8.612-14.596-13.81.794-4.89 14.198-5.49 19.712-3.897z"/><path stroke-width="1.3524118" d="M222.24 611.18c7.764 2.244 11.302 5.791 10.471 8.665-.83 2.874-5.715 3.987-13.479 1.744-6.219-1.797-14.919-6.75-14.637-9.868.265-2.933 12.456-2.04 17.645-.54z"/><path stroke-width="1.81706" d="M255.832 620.357c7.506 4.175 9.572 10.045 7.099 14.493-2.474 4.448-8.551 5.79-16.058 1.615-6.012-3.343-13.114-11.855-11.125-16.732 1.87-4.588 15.067-2.166 20.084.624z"/><path stroke-width="1.3524118" d="M253.866 623.61c7.063 3.929 9.715 8.179 8.261 10.793-1.454 2.615-6.463 2.604-13.527-1.324-5.657-3.146-13.024-9.925-12.05-12.9.916-2.799 12.596.807 17.316 3.432z"/><path stroke-width="1.81706" d="M286.5 636.545c7.073 4.874 8.568 10.916 5.68 15.107-2.89 4.19-9.067 4.944-16.139.07-5.664-3.904-11.919-13.057-9.472-17.721 2.301-4.388 15.206-.713 19.932 2.544z"/><path stroke-width="1.3524118" d="M284.232 639.596c6.655 4.586 8.888 9.07 7.19 11.534-1.697 2.463-6.683 1.972-13.337-2.614-5.33-3.673-12.015-11.126-10.76-13.994 1.18-2.699 12.46 2.009 16.907 5.074z"/><path stroke-width="1.81706" d="M312.845 657.25c6.234 5.908 6.777 12.108 3.275 15.802-3.501 3.694-9.72 3.484-15.955-2.425-4.993-4.733-9.757-14.742-6.62-18.972 2.953-3.98 15.134 1.646 19.3 5.595z"/><path stroke-width="1.3524118" d="M310.132 659.913c5.866 5.56 7.38 10.335 5.321 12.507-2.058 2.171-6.908.915-12.773-4.644-4.698-4.453-10.15-12.85-8.468-15.49 1.583-2.483 12 3.911 15.92 7.627z"/><path stroke-width="1.81706" d="M337.535 681.014c5.65 6.469 5.608 12.692 1.775 16.04-3.833 3.349-10.006 2.554-15.656-3.914-4.526-5.181-8.328-15.595-4.806-19.511 3.313-3.684 14.911 3.062 18.687 7.385z"/><path stroke-width="1.3524118" d="M334.584 683.41c5.317 6.087 6.375 10.984 4.121 12.952-2.253 1.968-6.963.262-12.28-5.825-4.258-4.875-8.897-13.747-6.973-16.217 1.809-2.323 11.58 5.023 15.132 9.09z"/><path stroke-width="1.81706" d="M357.946 710.403c4.167 7.51 2.82 13.586-1.63 16.056-4.45 2.47-10.319.398-14.487-7.112-3.338-6.015-4.871-16.994-.606-20.084 4.012-2.907 13.937 6.121 16.723 11.14z"/><path stroke-width="1.3524118" d="M354.557 712.127c3.922 7.067 3.929 12.077 1.313 13.528-2.616 1.452-6.864-1.204-10.785-8.27-3.141-5.66-5.815-15.308-3.417-17.32 2.257-1.892 10.269 7.34 12.89 12.062z"/><path stroke-width="1.81706" d="M369.294 742.61c2.093 8.33-.773 13.854-5.71 15.095-4.936 1.24-10.073-2.272-12.166-10.602-1.677-6.672-.331-17.677 4.585-19.564 4.626-1.776 11.892 9.504 13.29 15.071z"/><path stroke-width="1.3524118" d="M365.576 743.403c1.97 7.838.686 12.681-2.215 13.41-2.902.73-6.322-2.931-8.292-10.769-1.578-6.278-1.677-16.289 1.158-17.615 2.668-1.247 8.032 9.736 9.349 14.974z"/><path stroke-width="1.81706" d="M375.48 776.434c1.156 8.51-2.306 13.682-7.35 14.367-5.043.685-9.758-3.376-10.914-11.887-.926-6.817 1.633-17.603 6.729-18.933 4.794-1.252 10.762 10.765 11.535 16.453z"/><path stroke-width="1.3524118" d="M371.697 776.81c1.087 8.008-.726 12.678-3.69 13.08-2.965.403-5.958-3.614-7.045-11.623-.871-6.414.141-16.374 3.106-17.377 2.79-.944 6.902 10.568 7.629 15.92z"/><path stroke-width="1.81706" d="M378.13 810.283c-.366 8.58-4.686 13.06-9.772 12.843-5.085-.216-9.009-5.047-8.643-13.628.292-6.873 4.716-17.038 9.967-17.447 4.94-.385 8.692 12.497 8.448 18.232z"/><path stroke-width="1.3524118" d="M374.34 809.984c-.344 8.075-2.954 12.351-5.942 12.224-2.99-.127-5.226-4.61-4.882-12.685.276-6.467 3.031-16.092 6.127-16.555 2.912-.436 4.927 11.62 4.697 17.016z"/><path stroke-width="1.81706" d="M372.257 844.258c-2.007 8.351-7.108 11.917-12.057 10.728-4.949-1.19-7.872-6.684-5.865-15.035 1.608-6.689 7.902-15.815 13.133-15.208 4.922.571 6.13 13.934 4.789 19.515z"/><path stroke-width="1.3524118" d="M368.595 843.237c-1.889 7.858-5.271 11.554-8.18 10.855-2.909-.7-4.242-5.528-2.354-13.386 1.513-6.294 6.066-15.21 9.193-15.07 2.942.13 2.603 12.35 1.34 17.601z"/><path stroke-width="1.81706" d="M361.133 874.377c-3.251 7.95-8.833 10.701-13.545 8.775-4.71-1.927-6.767-7.8-3.516-15.75 2.603-6.368 10.209-14.434 15.288-13.04 4.778 1.31 3.945 14.702 1.773 20.015z"/><path stroke-width="1.3524118" d="M357.668 872.813c-3.059 7.48-6.963 10.62-9.732 9.488-2.769-1.132-3.355-6.108-.296-13.588 2.45-5.992 8.303-14.114 11.372-13.502 2.888.576.7 12.603-1.344 17.602z"/><path stroke-width="1.81706" d="M347.998 905.684c-4.551 7.284-10.519 9.049-14.835 6.351-4.317-2.697-5.348-8.834-.796-16.118 3.645-5.834 12.508-12.494 17.277-10.26 4.487 2.102 1.396 15.159-1.646 20.027z"/><path stroke-width="1.3524118" d="M344.849 903.555c-4.283 6.854-8.662 9.286-11.2 7.701-2.536-1.585-2.27-6.588 2.012-13.442 3.43-5.49 10.575-12.502 13.497-11.378 2.748 1.057-1.447 12.538-4.31 17.119z"/><path stroke-width="1.81706" d="M324.382 909.14c-4.55 7.284-10.519 9.048-14.835 6.351-4.317-2.697-5.347-8.834-.796-16.118 3.645-5.834 12.508-12.494 17.277-10.26 4.487 2.102 1.396 15.159-1.646 20.027z"/><path stroke-width="1.3524118" d="M321.233 907.01c-4.282 6.855-8.662 9.287-11.2 7.702-2.536-1.585-2.27-6.588 2.012-13.442 3.43-5.49 10.575-12.502 13.497-11.378 2.748 1.057-1.447 12.538-4.31 17.119z"/><path stroke-width="1.81706" d="M300.767 906.26c-4.552 7.284-10.52 9.048-14.836 6.351-4.317-2.697-5.347-8.834-.796-16.118 3.645-5.834 12.508-12.494 17.277-10.26 4.487 2.102 1.396 15.159-1.645 20.027z"/><path stroke-width="1.3524118" d="M297.617 904.13c-4.282 6.855-8.662 9.287-11.199 7.702-2.537-1.585-2.271-6.588 2.011-13.442 3.43-5.49 10.575-12.502 13.497-11.378 2.748 1.057-1.447 12.538-4.309 17.119z"/><path stroke-width="1.81706" d="M315.808 874.919c-3.755 7.724-9.503 10.11-14.08 7.885-4.578-2.226-6.252-8.22-2.496-15.944 3.008-6.187 11.117-13.747 16.096-12.03 4.683 1.617 2.99 14.927.48 20.089z"/><path stroke-width="1.3524118" d="M312.451 873.135c-3.533 7.268-7.631 10.15-10.322 8.842-2.69-1.308-2.954-6.31.58-13.579 2.83-5.822 9.193-13.55 12.217-12.742 2.845.761-.113 12.622-2.475 17.479z"/><path stroke-width="1.81706" d="M335.788 877.782c-3.193 7.973-8.756 10.764-13.48 8.871-4.726-1.892-6.824-7.751-3.63-15.724 2.558-6.387 10.106-14.507 15.194-13.15 4.788 1.278 4.05 14.675 1.916 20.003z"/><path stroke-width="1.3524118" d="M332.312 876.243c-3.005 7.502-6.886 10.67-9.663 9.557-2.777-1.112-3.399-6.083-.394-13.586 2.407-6.009 8.202-14.173 11.276-13.582 2.892.555.79 12.597-1.219 17.61z"/><path stroke-width="1.81706" d="M347.827 845.758c-2.339 8.265-7.577 11.624-12.475 10.238-4.897-1.386-7.6-6.992-5.26-15.256 1.872-6.62 8.525-15.488 13.729-14.673 4.895.767 5.569 14.168 4.006 19.691z"/><path stroke-width="1.3524118" d="M344.209 844.592c-2.2 7.777-5.728 11.334-8.607 10.52-2.878-.815-4.018-5.693-1.818-13.47 1.763-6.228 6.668-14.956 9.787-14.691 2.934.248 2.108 12.444.638 17.641z"/><path stroke-width="1.81706" d="M327.012 842.457c-2.481 8.223-7.777 11.491-12.65 10.02-4.873-1.47-7.477-7.122-4.996-15.345 1.987-6.586 8.793-15.337 13.981-14.432 4.881.852 5.323 14.262 3.665 19.757z"/><path stroke-width="1.3524118" d="M323.414 841.229c-2.334 7.737-5.923 11.233-8.787 10.369-2.864-.864-3.92-5.762-1.584-13.499 1.87-6.197 6.925-14.838 10.04-14.52 2.929.3 1.892 12.479.331 17.65z"/><path stroke-width="1.81706" d="M356.08 812.186c-.607 8.568-5.051 12.924-10.129 12.564-5.077-.36-8.864-5.298-8.257-13.865.486-6.862 5.193-16.9 10.453-17.16 4.949-.247 8.338 12.735 7.933 18.461z"/><path stroke-width="1.3524118" d="M352.3 811.782c-.57 8.061-3.3 12.263-6.284 12.051-2.984-.21-5.093-4.755-4.523-12.816.457-6.457 3.482-16 6.59-16.377 2.923-.354 4.598 11.754 4.217 17.142z"/><path stroke-width="1.81706" d="M354.01 778.394c.76 8.556-2.938 13.561-8.008 14.012-5.07.45-9.592-3.825-10.352-12.38-.608-6.853 2.448-17.51 7.6-18.602 4.847-1.028 10.252 11.253 10.76 16.97z"/><path stroke-width="1.3524118" d="M350.214 778.594c.715 8.05-1.313 12.631-4.293 12.896-2.98.265-5.783-3.887-6.498-11.937-.573-6.448.9-16.35 3.908-17.215 2.83-.813 6.405 10.876 6.883 16.256z"/><path stroke-width="1.81706" d="M288.654 694.887c6.377 5.754 7.072 11.938 3.662 15.717-3.41 3.78-9.633 3.722-16.01-2.032-5.107-4.609-10.116-14.499-7.083-18.804 2.853-4.05 15.169 1.274 19.43 5.119z"/><path stroke-width="1.3524118" d="M286.007 697.616c6 5.414 7.63 10.151 5.627 12.372-2.005 2.222-6.884 1.086-12.884-4.328-4.806-4.337-10.463-12.597-8.846-15.277 1.522-2.522 12.093 3.615 16.103 7.233z"/><path stroke-width="1.81706" d="M310.107 720.409c4.257 7.46 2.981 13.551-1.44 16.073-4.42 2.523-10.313.52-14.57-6.94-3.408-5.975-5.071-16.936-.843-20.076 3.978-2.954 14.009 5.957 16.853 10.943z"/><path stroke-width="1.3524118" d="M306.74 722.173c4.005 7.02 4.07 12.029 1.472 13.511-2.598 1.483-6.877-1.123-10.882-8.143-3.208-5.622-5.995-15.238-3.62-17.277 2.233-1.92 10.353 7.217 13.03 11.909z"/><path stroke-width="1.81706" d="M322.54 748.871c2.48 8.224-.126 13.875-4.999 15.345-4.873 1.469-10.168-1.8-12.648-10.024-1.985-6.587-1.154-17.642 3.67-19.756 4.538-1.99 12.32 8.94 13.978 14.435z"/><path stroke-width="1.3524118" d="M318.864 749.837c2.333 7.738 1.276 12.635-1.588 13.499-2.865.863-6.452-2.634-8.785-10.372-1.868-6.197-2.434-16.193.337-17.65 2.606-1.37 8.477 9.352 10.036 14.523z"/><path stroke-width="1.81706" d="M330.035 779.21c1.073 8.521-2.438 13.659-7.488 14.295-5.05.636-9.726-3.471-10.799-11.993-.86-6.826 1.804-17.587 6.913-18.867 4.806-1.205 10.657 10.87 11.374 16.564z"/><path stroke-width="1.3524118" d="M326.249 779.548c1.01 8.019-.849 12.671-3.817 13.045-2.968.374-5.922-3.673-6.932-11.691-.808-6.423.301-16.372 3.276-17.347 2.798-.916 6.798 10.635 7.473 15.993z"/><path stroke-width="1.81706" d="M332.606 808.776c-.132 8.588-4.329 13.183-9.418 13.105-5.09-.078-9.144-4.8-9.012-13.387.105-6.879 4.25-17.16 9.488-17.713 4.928-.52 9.03 12.256 8.942 17.995z"/><path stroke-width="1.3524118" d="M328.81 808.581c-.125 8.081-2.617 12.427-5.608 12.381-2.991-.046-5.349-4.466-5.225-12.547.099-6.472 2.591-16.168 5.673-16.716 2.9-.515 5.242 11.482 5.16 16.882z"/><path stroke-width="1.81706" d="M267.22 649.228c7.369 4.413 9.246 10.346 6.632 14.713-2.615 4.367-8.732 5.514-16.1 1.101-5.903-3.534-12.73-12.268-10.586-17.08 2.016-4.525 15.129-1.682 20.054 1.266z"/><path stroke-width="1.3524118" d="M265.15 652.418c6.935 4.151 9.45 8.484 7.913 11.05-1.537 2.567-6.544 2.396-13.477-1.755-5.554-3.326-12.701-10.336-11.633-13.279 1.005-2.768 12.564 1.21 17.198 3.984z"/><path stroke-width="1.81706" d="M291.771 668.116c6.198 5.947 6.703 12.15 3.18 15.822-3.525 3.673-9.743 3.425-15.94-2.522-4.965-4.763-9.668-14.801-6.504-19.012 2.976-3.961 15.123 1.738 19.264 5.712z"/><path stroke-width="1.3524118" d="M289.043 670.763c5.831 5.595 7.315 10.38 5.244 12.539-2.071 2.159-6.913.874-12.745-4.722-4.67-4.481-10.072-12.911-8.373-15.54 1.598-2.474 11.976 3.984 15.874 7.723z"/><path stroke-width="1.81706" d="M316.372 691.172c5.721 6.406 5.747 12.63 1.95 16.02-3.796 3.39-9.977 2.663-15.698-3.743-4.582-5.131-8.498-15.503-5.02-19.457 3.273-3.72 14.945 2.898 18.768 7.18z"/><path stroke-width="1.3524118" d="M313.447 693.6c5.384 6.028 6.495 10.913 4.263 12.906-2.231 1.993-6.96.338-12.343-5.69-4.312-4.828-9.047-13.649-7.15-16.14 1.783-2.342 11.633 4.896 15.23 8.924z"/><path stroke-width="1.81706" d="M335.812 718.151c3.835 7.686 2.223 13.697-2.331 15.97-4.555 2.272-10.327-.055-14.162-7.74-3.071-6.156-4.122-17.192.274-20.092 4.136-2.728 13.656 6.726 16.219 11.862z"/><path stroke-width="1.3524118" d="M332.352 719.725c3.608 7.232 3.395 12.237.718 13.573-2.677 1.336-6.804-1.504-10.412-8.736-2.89-5.792-5.14-15.547-2.655-17.452 2.337-1.791 9.937 7.783 12.349 12.615z"/><path stroke-width="1.81706" d="M346.46 747.1c2.097 8.328-.767 13.854-5.702 15.097-4.936 1.243-10.075-2.268-12.172-10.597-1.68-6.67-.34-17.675 4.576-19.565 4.625-1.778 11.896 9.498 13.297 15.064z"/><path stroke-width="1.3524118" d="M342.742 747.895c1.974 7.837.692 12.68-2.209 13.41-2.9.73-6.323-2.928-8.297-10.765-1.58-6.277-1.685-16.288 1.15-17.615 2.667-1.249 8.037 9.732 9.356 14.97z"/></g><path fill="#ffdd0c" stroke="#5b2700" stroke-width="2.5958" d="m276.771 904.136-17.92-.815-22.809 14.255-45.616 19.143h-41.544l-45.616-19.143-22.808-14.255-17.921.815c-.112 10.207-1.399 18.988-3.815 27.203-26.245-1.225-52.568-9.485-78.697-21.951 36.506 67.115 107.522 112.344 189.102 112.344 81.669 0 152.751-45.328 189.69-112.453-25.626 12.557-51.987 20.608-77.98 22.781-2.527-7.726-3.945-16.89-4.066-27.924z"/><g fill="none" stroke="#5b2700"><path stroke-width="2.5958" d="M148.882 938.348v62.723l21.175 12.225 20.312-11.727v-65.665z"/><path stroke-width="2.1259601999999997" d="M170.061 1013.054v8.005"/><path stroke-width="2.5958" d="m190.426 1001.07 46.43-16.29 29.326 14.662m-30.14-14.662v-66.796l-45.616 18.735m45.616-19.55 22.809-13.848 17.92.815c.376 34.222 13.955 52.41 29.325 68.424m52.948-63.537c-25.89 12.83-52.213 21.091-78.2 22.808M148.882 1001.07l-46.43-16.29-29.326 14.662m30.14-14.662v-66.796l45.616 18.735m-45.616-19.55-22.808-13.848-17.921.815c-.376 34.222-13.955 52.41-29.325 68.424m-52.948-63.537c25.89 12.83 52.213 21.091 78.2 22.808"/></g><circle cx="169.127" cy="805.744" r="135.759" fill="#ffd40c" stroke="#5b2700" stroke-width="2.17"/><circle cx="169.127" cy="805.744" r="101.375" fill="#fff" stroke="#5b2700" stroke-width="1.038"/><g fill="#ff0" stroke="#ffb821" stroke-width=".406"><path stroke-width="1.0538948000000001" d="M173.495 678.474c0 9.062-.899 25.336-2.008 25.336s-2.008-16.274-2.008-25.336c0-6.757.9-6.975 2.008-6.975 1.109 0 2.008.218 2.008 6.975zm5.475.206c-.39 9.052-1.99 25.272-3.098 25.225-1.108-.048-1.304-16.346-.913-25.4.291-6.75 1.199-6.93 2.307-6.882 1.108.048 1.996.305 1.705 7.056zm5.37.43c-.774 9.03-3.06 25.167-4.166 25.072-1.105-.095-.61-16.386.165-25.415.578-6.733 1.492-6.873 2.597-6.778 1.105.094 1.982.389 1.404 7.122zm5.53.686c-1.17 8.986-4.163 25.008-5.263 24.864-1.1-.143.11-16.397 1.28-25.382.872-6.702 1.792-6.802 2.892-6.659 1.1.143 1.962.476 1.09 7.177zm5.558.94c-1.568 8.925-5.268 24.798-6.36 24.606-1.093-.192.837-16.376 2.405-25.301 1.168-6.656 2.092-6.715 3.184-6.523 1.092.191 1.94.562.77 7.218zm5.71 1.233c-1.976 8.843-6.402 24.53-7.485 24.288-1.082-.242 1.59-16.32 3.567-25.164 1.473-6.595 2.398-6.612 3.48-6.37 1.083.242 1.912.65.439 7.246zm5.364 1.412c-2.36 8.75-7.468 24.227-8.538 23.938-1.07-.288 2.3-16.235 4.662-24.984 1.76-6.524 2.685-6.5 3.755-6.212 1.07.29 1.882.734.121 7.258zm5.238 1.626c-2.737 8.639-8.507 23.882-9.565 23.547-1.057-.335 3-16.12 5.736-24.76 2.04-6.442 2.964-6.378 4.02-6.043 1.058.334 1.85.814-.192 7.256zm5.341 1.919c-3.12 8.508-9.565 23.478-10.607 23.096-1.04-.382 3.718-15.97 6.837-24.478 2.326-6.345 3.245-6.24 4.287-5.859 1.04.382 1.81.896-.517 7.241zM262.947 718.323c-6.455 6.36-18.677 17.143-19.456 16.353-.778-.79 10.183-12.853 16.637-19.213 4.814-4.743 5.6-4.256 6.378-3.466.779.79 1.254 1.583-3.56 6.326zm3.697 4.045c-6.723 6.075-19.4 16.32-20.143 15.497-.743-.822 10.728-12.4 17.45-18.477 5.015-4.53 5.779-4.01 6.523-3.187.743.822 1.184 1.636-3.83 6.167zm3.462 4.127c-6.975 5.785-20.074 15.483-20.782 14.63-.708-.854 11.243-11.935 18.218-17.72 5.201-4.315 5.943-3.762 6.651-2.909.708.854 1.114 1.685-4.087 6zm3.392 4.419c-7.221 5.474-20.734 14.588-21.404 13.704-.67-.883 11.757-11.43 18.979-16.904 5.385-4.082 6.102-3.497 6.772-2.614.67.884 1.039 1.732-4.347 5.814zm3.232 4.619c-7.457 5.148-21.36 13.653-21.99 12.74-.63-.912 12.252-10.897 19.71-16.045 5.56-3.839 6.25-3.223 6.88-2.31.63.912.962 1.776-4.6 5.615zm3.13 4.933c-7.686 4.8-21.966 12.657-22.553 11.716-.588-.94 12.74-10.322 20.426-15.122 5.733-3.579 6.394-2.932 6.98-1.991.588.94.88 1.818-4.853 5.397zm2.759 4.813c-7.889 4.459-22.498 11.685-23.044 10.72-.546-.966 13.18-9.757 21.068-14.216 5.883-3.325 6.515-2.65 7.06-1.685.547.965.799 1.855-5.084 5.18zm2.518 4.871c-8.074 4.114-22.982 10.703-23.485 9.715-.504-.988 13.588-9.178 21.662-13.293 6.02-3.068 6.623-2.366 7.127-1.378.503.988.717 1.888-5.304 4.956zm2.383 5.152c-8.25 3.75-23.438 9.665-23.897 8.655-.459-1.01 13.985-8.562 22.235-12.311 6.152-2.796 6.722-2.068 7.181-1.059.46 1.01.632 1.919-5.52 4.715zM222.248 689.303c-3.507 8.356-10.632 23.014-11.655 22.585-1.022-.429 4.445-15.783 7.952-24.139 2.615-6.231 3.528-6.084 4.55-5.655 1.023.429 1.767.978-.847 7.209zm4.97 2.307c-3.864 8.198-11.615 22.535-12.618 22.062-1.003-.473 5.122-15.577 8.985-23.773 2.881-6.113 3.788-5.927 4.79-5.454 1.004.472 1.724 1.053-1.157 7.166zm4.784 2.476c-4.208 8.026-12.56 22.022-13.542 21.507-.983-.515 5.778-15.346 9.985-23.371 3.138-5.986 4.036-5.761 5.018-5.246.982.515 1.677 1.125-1.461 7.11zm4.833 2.771c-4.556 7.834-13.514 21.45-14.473 20.892-.958-.557 6.446-15.077 11.002-22.91 3.397-5.842 4.284-5.579 5.242-5.021.959.557 1.626 1.198-1.771 7.04zm4.762 3.018c-4.899 7.623-14.453 20.828-15.386 20.228-.933-.599 7.109-14.776 12.008-22.4 3.653-5.684 4.527-5.382 5.46-4.782.933.599 1.571 1.268-2.082 6.954zm4.789 3.346c-5.244 7.39-15.396 20.142-16.3 19.5-.904-.641 7.78-14.434 13.025-21.824 3.91-5.51 4.77-5.168 5.675-4.526.904.641 1.51 1.34-2.4 6.85zm4.399 3.379c-5.562 7.154-16.26 19.45-17.135 18.769-.876-.68 8.403-14.08 13.965-21.234 4.148-5.335 4.992-4.956 5.867-4.275.876.68 1.451 1.405-2.697 6.74zm4.201 3.525c-5.866 6.907-17.085 18.73-17.93 18.012-.846-.718 9.003-13.704 14.869-20.611 4.374-5.151 5.2-4.736 6.046-4.018.845.718 1.389 1.466-2.985 6.617zm4.183 3.836c-6.169 6.638-17.905 17.948-18.717 17.193-.813-.755 9.607-13.288 15.775-19.926 4.6-4.95 5.407-4.498 6.22-3.744.812.755 1.322 1.527-3.278 6.477zM289.303 760.82c-8.401 3.396-23.826 8.661-24.242 7.633-.415-1.028 14.336-7.96 22.737-11.355 6.266-2.532 6.805-1.78 7.22-.753.416 1.029.55 1.944-5.715 4.476zm1.862 5.155c-8.54 3.03-24.178 7.624-24.549 6.579-.37-1.045 14.666-7.334 23.206-10.364 6.37-2.26 6.875-1.485 7.246-.44.37 1.045.466 1.965-5.903 4.225zm1.612 5.139c-8.66 2.665-24.48 6.592-24.806 5.533-.326-1.06 14.964-6.706 23.625-9.37 6.459-1.988 6.932-1.193 7.258-.133.326 1.06.382 1.983-6.077 3.97zm1.436 5.383c-8.769 2.283-24.745 5.512-25.024 4.439-.28-1.073 15.243-6.042 24.013-8.325 6.54-1.702 6.977-.887 7.257.186.28 1.073.294 1.998-6.246 3.7zm1.212 5.506c-8.862 1.891-24.965 4.408-25.197 3.324-.231-1.085 15.497-5.36 24.36-7.251 6.608-1.41 7.009-.577 7.24.507.232 1.085.206 2.01-6.403 3.42zm.997 5.757c-8.94 1.481-25.142 3.255-25.323 2.161-.182-1.094 15.726-4.641 24.666-6.123 6.667-1.105 7.03-.253 7.21.84.182 1.094.114 2.017-6.553 3.122zm.7 5.502c-8.996 1.09-25.26 2.155-25.393 1.054-.134-1.101 15.914-3.95 24.91-5.04 6.709-.813 7.033.053 7.167 1.154.133 1.101.025 2.02-6.684 2.832zm.455 5.465c-9.034.7-25.329 1.062-25.415-.044-.086-1.106 16.07-3.26 25.105-3.96 6.738-.522 7.024.357 7.11 1.463.086 1.106-.062 2.019-6.8 2.54zm.223 5.671c-9.057.296-25.352-.07-25.388-1.18-.036-1.107 16.2-2.537 25.257-2.833 6.754-.22 7.001.67 7.037 1.779.037 1.108-.152 2.014-6.906 2.234zM297.063 810.355c-9.061-.115-25.322-1.22-25.308-2.329.014-1.108 16.298-1.801 25.359-1.686 6.757.085 6.964.987 6.95 2.096-.014 1.109-.244 2.005-7.001 1.919zm-.274 5.473c-9.048-.506-25.246-2.311-25.184-3.418.061-1.108 16.36-1.097 25.408-.592 6.747.377 6.915 1.287 6.853 2.394-.062 1.108-.33 1.993-7.077 1.616zm-.499 5.363c-9.019-.888-25.126-3.38-25.017-4.483.109-1.103 16.392-.402 25.41.487 6.725.663 6.854 1.579 6.746 2.683-.11 1.103-.414 1.976-7.14 1.313zm-.756 5.52c-8.97-1.283-24.953-4.478-24.796-5.576.157-1.098 16.395.317 25.365 1.601 6.69.957 6.778 1.878 6.621 2.976-.157 1.097-.5 1.956-7.19 1zm-1.01 5.546c-8.904-1.68-24.73-5.581-24.524-6.671.206-1.09 16.364 1.045 25.269 2.725 6.64 1.253 6.688 2.177 6.482 3.267-.205 1.09-.586 1.932-7.227.68zm-1.305 5.695c-8.818-2.088-24.447-6.713-24.191-7.792.255-1.08 16.298 1.796 25.116 3.885 6.576 1.557 6.581 2.482 6.325 3.56-.255 1.08-.674 1.904-7.25.347zm-1.481 5.346c-8.718-2.472-24.13-7.775-23.828-8.841.303-1.067 16.205 2.506 24.923 4.977 6.502 1.843 6.467 2.768 6.164 3.834-.302 1.067-.757 1.873-7.259.03zm-1.692 5.216c-8.603-2.846-23.772-8.809-23.423-9.862.348-1.053 16.081 3.204 24.684 6.05 6.416 2.121 6.341 3.043 5.993 4.096-.348 1.053-.838 1.838-7.254-.284zm-1.986 5.316c-8.468-3.226-23.355-9.862-22.96-10.898.395-1.036 15.922 3.92 24.39 7.146 6.315 2.407 6.198 3.325 5.803 4.36-.394 1.037-.918 1.8-7.233-.607zM256.084 899.295c-6.278-6.535-16.904-18.893-16.105-19.661.8-.768 12.723 10.344 19 16.879 4.683 4.873 4.185 5.653 3.386 6.421-.8.769-1.6 1.234-6.281-3.639zm-4.091 3.646c-5.99-6.8-16.073-19.605-15.241-20.338.832-.733 12.264 10.884 18.254 17.683 4.468 5.071 3.937 5.829 3.105 6.562-.832.733-1.65 1.164-6.118-3.907zm-4.171 3.409c-5.696-7.048-15.227-20.269-14.365-20.966.862-.697 11.792 11.394 17.488 18.441 4.248 5.256 3.686 5.99 2.824 6.688-.862.697-1.699 1.092-5.947-4.163zm-4.462 3.336c-5.381-7.29-14.323-20.917-13.431-21.576.892-.658 11.28 11.9 16.662 19.191 4.014 5.437 3.42 6.146 2.528 6.805-.892.658-1.745 1.017-5.759-4.42zm-4.659 3.174c-5.053-7.523-13.381-21.533-12.46-22.151.92-.619 10.74 12.389 15.793 19.911 3.769 5.61 3.144 6.292 2.224 6.91-.92.619-1.789.939-5.557-4.67zm-4.972 3.067c-4.702-7.747-12.377-22.125-11.43-22.7.948-.576 10.16 12.87 14.862 20.616 3.507 5.777 2.851 6.43 1.903 7.005-.948.576-1.83.856-5.336-4.921zm-4.847 2.697c-4.36-7.944-11.4-22.644-10.427-23.178.972-.533 9.588 13.302 13.947 21.246 3.25 5.925 2.568 6.549 1.595 7.082-.972.534-1.865.775-5.115-5.15zm-4.903 2.456c-4.012-8.125-10.41-23.115-9.416-23.606.994-.491 9.005 13.703 13.017 21.828 2.991 6.06 2.282 6.653 1.288 7.144-.995.491-1.897.693-4.889-5.366zm-5.182 2.317c-3.644-8.296-9.367-23.558-8.352-24.004 1.015-.446 8.384 14.092 12.029 22.389 2.718 6.187 1.983 6.748.967 7.194-1.015.446-1.926.608-4.644-5.58zM285.618 858.967c-8.311-3.612-22.878-10.923-22.436-11.94.442-1.017 15.725 4.645 24.036 8.257 6.198 2.693 6.04 3.605 5.598 4.622-.442 1.017-1 1.754-7.198-.94zm-2.371 4.94c-8.147-3.967-22.385-11.9-21.9-12.897.486-.997 15.51 5.32 23.658 9.287 6.076 2.958 5.878 3.862 5.393 4.859-.485.997-1.075 1.71-7.15-1.249zm-2.536 4.753c-7.971-4.31-21.86-12.839-21.333-13.814.527-.976 15.271 5.972 23.243 10.281 5.945 3.213 5.709 4.108 5.182 5.083-.528.976-1.147 1.663-7.092-1.55zm-2.831 4.797c-7.776-4.654-21.277-13.785-20.708-14.736.57-.952 14.995 6.636 22.77 11.29 5.798 3.472 5.523 4.355 4.954 5.306-.57.952-1.219 1.611-7.017-1.86zm-3.078 4.723c-7.561-4.994-20.644-14.715-20.033-15.64.611-.925 14.686 7.295 22.246 12.29 5.639 3.725 5.325 4.595 4.714 5.52-.611.926-1.289 1.555-6.927-2.17zm-3.407 4.747c-7.323-5.338-19.945-15.65-19.292-16.546.653-.896 14.334 7.963 21.657 13.3 5.46 3.98 5.108 4.836 4.454 5.732-.653.896-1.358 1.494-6.82-2.486zm-3.435 4.356c-7.082-5.652-19.242-16.505-18.55-17.372.692-.867 13.973 8.581 21.056 14.233 5.282 4.215 4.891 5.054 4.2 5.92-.692.868-1.423 1.434-6.705-2.781zm-3.577 4.155c-6.833-5.952-18.512-17.32-17.784-18.157.729-.836 13.59 9.177 20.422 15.13 5.095 4.439 4.669 5.26 3.94 6.096-.728.836-1.483 1.37-6.578-3.069zm-3.889 4.134c-6.56-6.252-17.72-18.13-16.955-18.933.765-.803 13.166 9.774 19.725 16.027 4.892 4.662 4.43 5.463 3.664 6.266-.765.803-1.543 1.303-6.434-3.36zM213.256 925.11c-3.289-8.443-8.358-23.933-7.324-24.336 1.033-.402 7.777 14.436 11.066 22.88 2.453 6.296 1.694 6.826.66 7.228-1.033.403-1.95.526-4.402-5.771zm-5.176 1.797c-2.922-8.577-7.318-24.272-6.268-24.63 1.05-.357 7.147 14.758 10.069 23.336 2.178 6.397 1.398 6.893.348 7.25-1.05.358-1.971.441-4.15-5.956zm-5.16 1.547c-2.556-8.694-6.282-24.561-5.218-24.874 1.064-.312 6.515 15.048 9.07 23.742 1.906 6.483 1.104 6.946.04 7.259-1.063.312-1.987.357-3.893-6.127zm-5.401 1.368c-2.172-8.798-5.198-24.813-4.122-25.078 1.077-.266 5.85 15.318 8.02 24.116 1.62 6.56.8 6.988-.277 7.254-1.077.266-2.002.27-3.621-6.292zm-5.521 1.142c-1.778-8.885-4.091-25.02-3.004-25.237 1.087-.218 5.163 15.563 6.942 24.449 1.326 6.626.488 7.016-.6 7.234-1.087.218-2.011.18-3.338-6.446zm-5.768.924c-1.369-8.958-2.937-25.181-1.841-25.349 1.096-.167 4.442 15.785 5.81 24.742 1.02 6.68.164 7.032-.932 7.2-1.096.167-2.018.087-3.038-6.593zm-5.512.63c-.975-9.009-1.834-25.285-.731-25.404 1.102-.12 3.748 15.963 4.724 24.972.727 6.718-.143 7.032-1.246 7.151-1.102.12-2.02 0-2.747-6.719zm-5.47.386c-.585-9.043-.74-25.34.366-25.412 1.107-.072 3.056 16.11 3.642 25.153.436 6.743-.447 7.019-1.553 7.09-1.107.072-2.018-.087-2.455-6.83zm-5.674.151c-.18-9.06.393-25.349 1.501-25.371 1.11-.022 2.333 16.23 2.514 25.29.135 6.757-.76 6.993-1.868 7.015-1.108.022-2.012-.178-2.146-6.934zM164.759 678.474c0 9.062.899 25.336 2.008 25.336 1.108 0 2.007-16.274 2.007-25.336 0-6.757-.899-6.975-2.007-6.975-1.11 0-2.008.218-2.008 6.975zm-5.476.206c.39 9.052 1.991 25.272 3.099 25.225 1.108-.048 1.304-16.346.913-25.4-.292-6.75-1.2-6.93-2.307-6.882-1.108.048-1.997.305-1.705 7.056zm-5.37.43c.775 9.03 3.062 25.167 4.166 25.072 1.105-.095.61-16.386-.165-25.415-.577-6.733-1.492-6.873-2.596-6.778-1.105.094-1.982.389-1.405 7.122zm-5.528.686c1.17 8.986 4.162 25.008 5.261 24.864 1.1-.143-.11-16.397-1.28-25.382-.872-6.702-1.791-6.802-2.89-6.659-1.1.143-1.964.476-1.091 7.177zm-5.559.94c1.568 8.925 5.268 24.798 6.36 24.606 1.092-.192-.837-16.376-2.405-25.301-1.169-6.656-2.092-6.715-3.184-6.523-1.092.191-1.94.562-.77 7.218zm-5.711 1.233c1.977 8.843 6.403 24.53 7.485 24.288 1.083-.242-1.59-16.32-3.566-25.164-1.474-6.595-2.399-6.612-3.48-6.37-1.083.242-1.913.65-.439 7.246zm-5.364 1.412c2.36 8.75 7.468 24.227 8.539 23.938 1.07-.288-2.301-16.235-4.662-24.984-1.76-6.524-2.685-6.5-3.756-6.212-1.07.29-1.881.734-.12 7.258zm-5.237 1.626c2.736 8.639 8.507 23.882 9.564 23.547 1.057-.335-3-16.12-5.736-24.76-2.04-6.442-2.963-6.378-4.02-6.043-1.057.334-1.848.814.192 7.256zm-5.341 1.919c3.119 8.508 9.565 23.478 10.606 23.096 1.041-.382-3.717-15.97-6.836-24.478-2.327-6.345-3.246-6.24-4.287-5.859-1.041.382-1.81.896.517 7.241zM75.307 718.323c6.454 6.36 18.677 17.143 19.455 16.353.779-.79-10.182-12.853-16.637-19.213-4.813-4.743-5.6-4.256-6.378-3.466-.778.79-1.254 1.583 3.56 6.326zm-3.697 4.045c6.722 6.075 19.399 16.32 20.142 15.497.744-.822-10.727-12.4-17.45-18.477-5.014-4.53-5.778-4.01-6.522-3.187-.743.822-1.184 1.636 3.83 6.167zm-3.462 4.127c6.975 5.785 20.074 15.483 20.782 14.63.708-.854-11.244-11.935-18.218-17.72-5.202-4.315-5.943-3.762-6.651-2.909-.708.854-1.114 1.685 4.087 6zm-3.392 4.419c7.221 5.474 20.734 14.588 21.403 13.704.67-.883-11.756-11.43-18.978-16.904-5.385-4.082-6.102-3.497-6.772-2.614-.67.884-1.039 1.732 4.346 5.814zm-3.233 4.619c7.458 5.148 21.361 13.653 21.991 12.74.63-.912-12.252-10.897-19.71-16.045-5.56-3.839-6.25-3.223-6.88-2.31-.631.912-.962 1.776 4.6 5.615zm-3.13 4.933c7.687 4.8 21.967 12.657 22.554 11.716.588-.94-12.74-10.322-20.427-15.122-5.732-3.579-6.393-2.932-6.98-1.991-.588.94-.879 1.818 4.853 5.397zm-2.758 4.813c7.888 4.459 22.498 11.685 23.044 10.72.545-.966-13.18-9.757-21.068-14.216-5.883-3.325-6.515-2.65-7.061-1.685-.546.965-.798 1.855 5.085 5.18zm-2.518 4.871c8.074 4.114 22.981 10.703 23.485 9.715.504-.988-13.588-9.178-21.662-13.293-6.02-3.068-6.623-2.366-7.127-1.378-.504.988-.717 1.888 5.304 4.956zm-2.382 5.152c8.25 3.75 23.436 9.665 23.895 8.655.46-1.01-13.984-8.562-22.234-12.311-6.152-2.796-6.723-2.068-7.181-1.059-.46 1.01-.633 1.919 5.52 4.715zM116.006 689.303c3.506 8.356 10.632 23.014 11.655 22.585 1.022-.429-4.446-15.783-7.952-24.139-2.615-6.231-3.528-6.084-4.55-5.655-1.023.429-1.768.978.847 7.209zm-4.97 2.307c3.864 8.198 11.615 22.535 12.618 22.062 1.003-.473-5.122-15.577-8.986-23.773-2.88-6.113-3.787-5.927-4.79-5.454-1.003.472-1.723 1.053 1.158 7.166zm-4.784 2.476c4.207 8.026 12.56 22.022 13.542 21.507.982-.515-5.778-15.346-9.986-23.371-3.138-5.986-4.035-5.761-5.017-5.246-.982.515-1.677 1.125 1.46 7.11zm-4.833 2.771c4.555 7.834 13.514 21.45 14.472 20.892.959-.557-6.445-15.077-11.001-22.91-3.397-5.842-4.284-5.579-5.243-5.021-.958.557-1.626 1.198 1.772 7.04zm-4.762 3.018c4.899 7.623 14.452 20.828 15.385 20.228.933-.599-7.108-14.776-12.007-22.4-3.653-5.684-4.527-5.382-5.46-4.782-.933.599-1.572 1.268 2.082 6.954zm-4.789 3.346c5.244 7.39 15.395 20.142 16.3 19.5.904-.641-7.781-14.434-13.025-21.824-3.911-5.51-4.77-5.168-5.675-4.526-.904.641-1.511 1.34 2.4 6.85zm-4.4 3.379c5.562 7.154 16.26 19.45 17.136 18.769.876-.68-8.403-14.08-13.966-21.234-4.147-5.335-4.99-4.956-5.866-4.275-.876.68-1.452 1.405 2.696 6.74zm-4.2 3.525c5.866 6.907 17.085 18.73 17.93 18.012.846-.718-9.003-13.704-14.87-20.611-4.373-5.151-5.2-4.736-6.045-4.018-.845.718-1.39 1.466 2.985 6.617zm-4.183 3.836c6.168 6.638 17.905 17.948 18.717 17.193.813-.755-9.607-13.288-15.775-19.926-4.6-4.95-5.407-4.498-6.22-3.744-.812.755-1.322 1.527 3.278 6.477zM48.95 760.82c8.402 3.396 23.827 8.661 24.243 7.633.415-1.028-14.336-7.96-22.738-11.355-6.265-2.532-6.804-1.78-7.22-.753-.415 1.029-.55 1.944 5.716 4.476zm-1.861 5.155c8.54 3.03 24.178 7.624 24.548 6.579.371-1.045-14.666-7.334-23.206-10.364-6.368-2.26-6.875-1.485-7.245-.44-.371 1.045-.466 1.965 5.903 4.225zm-1.612 5.139c8.66 2.665 24.48 6.592 24.805 5.533.326-1.06-14.963-6.706-23.624-9.37-6.46-1.988-6.932-1.193-7.258-.133-.326 1.06-.382 1.983 6.077 3.97zm-1.437 5.383c8.77 2.283 24.745 5.512 25.025 4.439.28-1.073-15.244-6.042-24.013-8.325-6.54-1.702-6.978-.887-7.257.186-.28 1.073-.295 1.998 6.245 3.7zm-1.211 5.506c8.862 1.891 24.965 4.408 25.196 3.324.232-1.085-15.496-5.36-24.358-7.251-6.61-1.41-7.01-.577-7.242.507-.231 1.085-.205 2.01 6.404 3.42zm-.997 5.757c8.94 1.481 25.142 3.255 25.323 2.161.181-1.094-15.727-4.641-24.667-6.123-6.666-1.105-7.028-.253-7.21.84-.181 1.094-.113 2.017 6.554 3.122zm-.7 5.502c8.996 1.09 25.26 2.155 25.393 1.054.133-1.101-15.914-3.95-24.91-5.04-6.71-.813-7.034.053-7.167 1.154-.134 1.101-.025 2.02 6.684 2.832zm-.456 5.465c9.035.7 25.33 1.062 25.415-.044.086-1.106-16.07-3.26-25.104-3.96-6.738-.522-7.025.357-7.11 1.463-.086 1.106.062 2.019 6.8 2.54zm-.222 5.671c9.057.296 25.351-.07 25.388-1.18.036-1.107-16.2-2.537-25.257-2.833-6.754-.22-7.001.67-7.038 1.779-.036 1.108.153 2.014 6.907 2.234zM41.19 810.355c9.062-.115 25.323-1.22 25.309-2.329-.014-1.108-16.298-1.801-25.36-1.686-6.756.085-6.963.987-6.949 2.096.014 1.109.244 2.005 7 1.919zm.275 5.473c9.047-.506 25.246-2.311 25.184-3.418-.062-1.108-16.36-1.097-25.408-.592-6.747.377-6.915 1.287-6.853 2.394.062 1.108.33 1.993 7.077 1.616zm.499 5.363c9.018-.888 25.126-3.38 25.017-4.483-.109-1.103-16.393-.402-25.41.487-6.726.663-6.855 1.579-6.746 2.683.109 1.103.414 1.976 7.14 1.313zm.756 5.52c8.97-1.283 24.952-4.478 24.795-5.576-.157-1.098-16.394.317-25.364 1.601-6.69.957-6.778 1.878-6.621 2.976.157 1.097.5 1.956 7.19 1zm1.01 5.546c8.904-1.68 24.73-5.581 24.523-6.671-.205-1.09-16.364 1.045-25.268 2.725-6.64 1.253-6.688 2.177-6.483 3.267.206 1.09.587 1.932 7.228.68zm1.305 5.695c8.818-2.088 24.447-6.713 24.191-7.792-.255-1.08-16.299 1.796-25.116 3.885-6.576 1.557-6.581 2.482-6.326 3.56.256 1.08.675 1.904 7.251.347zm1.481 5.346c8.718-2.472 24.13-7.775 23.827-8.841-.302-1.067-16.204 2.506-24.923 4.977-6.501 1.843-6.466 2.768-6.163 3.834.302 1.067.757 1.873 7.259.03zm1.691 5.216c8.604-2.846 23.772-8.809 23.424-9.862-.348-1.053-16.081 3.204-24.685 6.05-6.416 2.121-6.34 3.043-5.992 4.096.348 1.053.837 1.838 7.253-.284zm1.987 5.316c8.467-3.226 23.354-9.862 22.96-10.898-.395-1.036-15.923 3.92-24.39 7.146-6.315 2.407-6.199 3.325-5.804 4.36.395 1.037.92 1.8 7.234-.607zM82.17 899.295c6.278-6.535 16.904-18.893 16.104-19.661-.8-.768-12.722 10.344-19 16.879-4.682 4.873-4.185 5.653-3.385 6.421.8.769 1.599 1.234 6.28-3.639zm4.09 3.646c5.99-6.8 16.074-19.605 15.242-20.338-.832-.733-12.265 10.884-18.255 17.683-4.467 5.071-3.937 5.829-3.104 6.562.832.733 1.65 1.164 6.117-3.907zm4.171 3.409c5.697-7.048 15.228-20.269 14.366-20.966-.863-.697-11.792 11.394-17.489 18.441-4.248 5.256-3.686 5.99-2.823 6.688.862.697 1.698 1.092 5.946-4.163zm4.462 3.336c5.382-7.29 14.324-20.917 13.432-21.576-.892-.658-11.28 11.9-16.663 19.191-4.013 5.437-3.42 6.146-2.527 6.805.892.658 1.745 1.017 5.758-4.42zm4.66 3.174c5.053-7.523 13.381-21.533 12.46-22.151-.92-.619-10.74 12.389-15.794 19.911-3.768 5.61-3.143 6.292-2.223 6.91.92.619 1.788.939 5.557-4.67zm4.972 3.067c4.702-7.747 12.377-22.125 11.43-22.7-.949-.576-10.161 12.87-14.863 20.616-3.506 5.777-2.85 6.43-1.903 7.005.948.576 1.83.856 5.336-4.921zm4.847 2.697c4.359-7.944 11.399-22.644 10.427-23.178-.972-.533-9.589 13.302-13.947 21.246-3.251 5.925-2.568 6.549-1.596 7.082.972.534 1.865.775 5.116-5.15zm4.903 2.456c4.012-8.125 10.41-23.115 9.416-23.606-.994-.491-9.005 13.703-13.017 21.828-2.992 6.06-2.282 6.653-1.288 7.144.994.491 1.897.693 4.889-5.366zm5.181 2.317c3.645-8.296 9.368-23.558 8.352-24.004-1.015-.446-8.383 14.092-12.028 22.389-2.718 6.187-1.983 6.748-.968 7.194 1.016.446 1.926.608 4.644-5.58zM52.636 858.967c8.31-3.612 22.878-10.923 22.436-11.94-.442-1.017-15.726 4.645-24.036 8.257-6.198 2.693-6.04 3.605-5.598 4.622.442 1.017 1 1.754 7.198-.94zm2.371 4.94c8.147-3.967 22.385-11.9 21.9-12.897-.486-.997-15.511 5.32-23.658 9.287-6.076 2.958-5.879 3.862-5.393 4.859.485.997 1.075 1.71 7.15-1.249zm2.535 4.753c7.972-4.31 21.86-12.839 21.334-13.814-.528-.976-15.271 5.972-23.243 10.281-5.945 3.213-5.71 4.108-5.182 5.083.527.976 1.147 1.663 7.091-1.55zm2.833 4.797c7.775-4.654 21.276-13.785 20.706-14.736-.569-.952-14.994 6.636-22.769 11.29-5.798 3.472-5.523 4.355-4.954 5.306.57.952 1.218 1.611 7.017-1.86zm3.077 4.723c7.56-4.994 20.644-14.715 20.032-15.64-.61-.925-14.685 7.295-22.246 12.29-5.638 3.725-5.324 4.595-4.713 5.52.61.926 1.289 1.555 6.927-2.17zm3.408 4.747c7.322-5.338 19.944-15.65 19.29-16.546-.652-.896-14.333 7.963-21.656 13.3-5.461 3.98-5.108 4.836-4.455 5.732.653.896 1.36 1.494 6.82-2.486zm3.433 4.356c7.083-5.652 19.242-16.505 18.55-17.372-.691-.867-13.972 8.581-21.055 14.233-5.282 4.215-4.892 5.054-4.2 5.92.691.868 1.423 1.434 6.705-2.781zm3.578 4.155c6.832-5.952 18.512-17.32 17.783-18.157-.728-.836-13.589 9.177-20.42 15.13-5.096 4.439-4.67 5.26-3.942 6.096.729.836 1.484 1.37 6.579-3.069zm3.889 4.134c6.56-6.252 17.72-18.13 16.954-18.933-.765-.803-13.165 9.774-19.724 16.027-4.892 4.662-4.43 5.463-3.665 6.266.765.803 1.543 1.303 6.435-3.36zM124.998 925.11c3.289-8.443 8.357-23.933 7.324-24.336-1.033-.402-7.777 14.436-11.066 22.88-2.453 6.296-1.694 6.826-.661 7.228 1.033.403 1.95.526 4.403-5.771zm5.176 1.797c2.922-8.577 7.318-24.272 6.268-24.63-1.05-.357-7.147 14.758-10.069 23.336-2.179 6.397-1.398 6.893-.348 7.25 1.05.358 1.97.441 4.15-5.956zm5.16 1.547c2.555-8.694 6.282-24.561 5.218-24.874-1.064-.312-6.515 15.048-9.07 23.742-1.906 6.483-1.105 6.946-.04 7.259 1.063.312 1.987.357 3.892-6.127zm5.401 1.368c2.171-8.798 5.198-24.813 4.121-25.078-1.076-.266-5.848 15.318-8.02 24.116-1.619 6.56-.798 6.988.278 7.254 1.077.266 2.002.27 3.621-6.292zm5.52 1.142c1.78-8.885 4.092-25.02 3.005-25.237-1.087-.218-5.163 15.563-6.942 24.449-1.327 6.626-.488 7.016.6 7.234 1.087.218 2.011.18 3.338-6.446zm5.769.924c1.369-8.958 2.937-25.181 1.84-25.349-1.095-.167-4.441 15.785-5.81 24.742-1.02 6.68-.164 7.032.932 7.2 1.097.167 2.018.087 3.039-6.593zm5.511.63c.976-9.009 1.835-25.285.732-25.404-1.102-.12-3.748 15.963-4.724 24.972-.727 6.718.143 7.032 1.245 7.151 1.103.12 2.02 0 2.747-6.719zm5.47.386c.586-9.043.741-25.34-.365-25.412-1.107-.072-3.056 16.11-3.642 25.153-.437 6.743.446 7.019 1.553 7.09 1.106.072 2.018-.087 2.454-6.83zm5.675.151c.18-9.06-.393-25.349-1.502-25.371-1.108-.022-2.332 16.23-2.514 25.29-.135 6.757.76 6.993 1.868 7.015 1.11.022 2.012-.178 2.147-6.934z"/></g><path fill="#d40000" fill-rule="evenodd" stroke="#ffcb0c" stroke-width="8.621" d="m169.127 701.92 23.977 73.714h77.591l-62.772 45.558 23.977 73.715-62.773-45.558-62.773 45.558 23.977-73.715-62.773-45.558h77.592z" overflow="visible"/><g fill="#ffdd0c" stroke="#5b2700"><path stroke-width="1.81706" d="M141.432 641.33c-6.456-5.665-12.68-5.636-16.036-1.81-3.357 3.826-2.576 10 3.88 15.665 5.171 4.537 15.577 8.362 19.5 4.848 3.692-3.305-3.03-14.918-7.344-18.703z"/><path stroke-width="1.3524118" d="M139.03 644.276c-6.076-5.33-10.97-6.398-12.943-4.15-1.973 2.25-.278 6.963 5.797 12.293 4.866 4.27 13.728 8.927 16.202 7.009 2.328-1.804-4.997-11.59-9.057-15.152z"/><path stroke-width="1.2979" d="M153.516 623.071c-30.582 1.652-44.552 11.322-72.687 27.091l2.473 4.678c34.21-14.368 46.115-20.958 70.214-31.769z"/><path stroke-width="1.0383200000000001" d="M153.516 623.071c-35.642 6.823-42.715 13.906-71.751 28.695l1.983 1.154c32.364-15.466 36.621-18.322 69.768-29.849z"/><path stroke-width="1.81706" d="M120.77 649.99c-6.65-5.436-12.87-5.19-16.09-1.249-3.222 3.94-2.226 10.084 4.424 15.52 5.327 4.353 15.86 7.813 19.658 4.165 3.574-3.433-3.548-14.804-7.993-18.436z"/><path stroke-width="1.3524118" d="M118.47 653.018c-6.257-5.115-11.185-6.012-13.079-3.695-1.893 2.316-.034 6.968 6.224 12.083 5.012 4.096 14.03 8.442 16.436 6.439 2.263-1.885-5.398-11.41-9.58-14.827z"/></g><g fill="#ffdd0c" stroke="#5b2700"><path stroke-width="1.81706" d="M117.419 607.569c-8.252 2.384-11.582 7.642-10.17 12.531 1.414 4.89 7.035 7.56 15.286 5.176 6.61-1.91 15.44-8.612 14.596-13.81-.794-4.89-14.198-5.49-19.712-3.897z"/><path stroke-width="1.3524118" d="M118.605 611.18c-7.765 2.244-11.303 5.791-10.472 8.665.83 2.874 5.715 3.987 13.479 1.744 6.219-1.797 14.919-6.75 14.637-9.868-.265-2.933-12.456-2.04-17.644-.54z"/></g><g fill="#ffdd0c" stroke="#5b2700"><path stroke-width="1.81706" d="M85.012 620.357c-7.506 4.175-9.572 10.045-7.098 14.493 2.473 4.448 8.55 5.79 16.057 1.615 6.012-3.343 13.114-11.855 11.126-16.732-1.871-4.588-15.068-2.166-20.085.624z"/><path stroke-width="1.3524118" d="M86.978 623.61c-7.063 3.929-9.715 8.179-8.261 10.793 1.454 2.615 6.464 2.604 13.527-1.324 5.657-3.146 13.024-9.925 12.05-12.9-.916-2.799-12.596.807-17.316 3.432z"/></g><g fill="#ffdd0c" stroke="#5b2700"><path stroke-width="1.81706" d="M54.343 636.545c-7.072 4.874-8.566 10.916-5.678 15.107 2.888 4.19 9.066 4.944 16.138.07 5.664-3.904 11.919-13.057 9.472-17.721-2.301-4.388-15.206-.713-19.932 2.544z"/><path stroke-width="1.3524118" d="M56.612 639.596c-6.655 4.586-8.888 9.07-7.19 11.534 1.697 2.463 6.683 1.972 13.338-2.614 5.33-3.673 12.014-11.126 10.76-13.994-1.18-2.699-12.461 2.009-16.908 5.074z"/></g><g fill="#ffdd0c" stroke="#5b2700"><path stroke-width="1.81706" d="M27.999 657.25c-6.234 5.908-6.777 12.108-3.275 15.802 3.501 3.694 9.721 3.484 15.955-2.425 4.993-4.733 9.757-14.743 6.62-18.972-2.953-3.98-15.134 1.646-19.3 5.595z"/><path stroke-width="1.3524118" d="M30.712 659.913c-5.866 5.56-7.38 10.335-5.321 12.507 2.058 2.171 6.908.915 12.773-4.644 4.698-4.453 10.15-12.85 8.468-15.49-1.583-2.483-12 3.911-15.92 7.627z"/></g><g fill="#ffdd0c" stroke="#5b2700"><path stroke-width="1.81706" d="M3.309 681.014c-5.65 6.469-5.608 12.692-1.775 16.04 3.833 3.349 10.006 2.554 15.656-3.914 4.526-5.181 8.328-15.595 4.806-19.511-3.313-3.684-14.911 3.062-18.687 7.385z"/><path stroke-width="1.3524118" d="M6.26 683.41c-5.317 6.087-6.374 10.984-4.121 12.952 2.253 1.968 6.963.262 12.28-5.825 4.258-4.875 8.897-13.747 6.973-16.217-1.809-2.323-11.579 5.023-15.132 9.09z"/></g><g fill="#ffdd0c" stroke="#5b2700"><path stroke-width="1.81706" d="M-17.102 710.403c-4.167 7.51-2.82 13.586 1.63 16.056 4.45 2.47 10.319.398 14.487-7.112 3.338-6.015 4.871-16.994.606-20.084-4.012-2.907-13.937 6.121-16.723 11.14z"/><path stroke-width="1.3524118" d="M-13.713 712.127c-3.922 7.067-3.929 12.077-1.313 13.528 2.616 1.452 6.864-1.204 10.785-8.27 3.141-5.66 5.815-15.308 3.417-17.32-2.257-1.892-10.269 7.34-12.89 12.062z"/></g><g fill="#ffdd0c" stroke="#5b2700"><path stroke-width="1.81706" d="M-28.45 742.61c-2.093 8.33.773 13.854 5.71 15.095 4.936 1.24 10.073-2.272 12.166-10.602 1.677-6.672.331-17.676-4.585-19.564-4.626-1.776-11.891 9.504-13.29 15.071z"/><path stroke-width="1.3524118" d="M-24.732 743.403c-1.97 7.838-.686 12.681 2.215 13.41 2.902.73 6.322-2.931 8.292-10.769 1.578-6.278 1.677-16.289-1.158-17.615-2.668-1.247-8.032 9.736-9.349 14.974z"/></g><g fill="#ffdd0c" stroke="#5b2700"><path stroke-width="1.81706" d="M-34.636 776.434c-1.156 8.51 2.306 13.682 7.35 14.367 5.043.685 9.759-3.376 10.914-11.887.926-6.817-1.633-17.603-6.729-18.933-4.794-1.252-10.762 10.765-11.535 16.453z"/><path stroke-width="1.3524118" d="M-30.853 776.81c-1.087 8.008.726 12.678 3.69 13.08 2.965.403 5.958-3.614 7.045-11.622.871-6.415-.141-16.375-3.106-17.378-2.79-.943-6.902 10.568-7.629 15.92z"/></g><g fill="#ffdd0c" stroke="#5b2700"><path stroke-width="1.81706" d="M-37.286 810.283c.366 8.58 4.686 13.06 9.772 12.843 5.085-.216 9.009-5.046 8.643-13.628-.292-6.873-4.716-17.038-9.967-17.447-4.94-.385-8.692 12.497-8.448 18.232z"/><path stroke-width="1.3524118" d="M-33.496 809.984c.344 8.075 2.954 12.351 5.943 12.224 2.988-.127 5.225-4.61 4.88-12.685-.275-6.467-3.03-16.092-6.126-16.555-2.912-.436-4.927 11.62-4.697 17.016z"/></g><g fill="#ffdd0c" stroke="#5b2700"><path stroke-width="1.81706" d="M-31.413 844.258c2.007 8.351 7.108 11.917 12.057 10.728 4.949-1.19 7.872-6.684 5.865-15.035-1.607-6.689-7.901-15.815-13.133-15.208-4.922.571-6.13 13.934-4.789 19.515z"/><path stroke-width="1.3524118" d="M-27.75 843.237c1.888 7.858 5.27 11.554 8.179 10.855 2.909-.7 4.243-5.528 2.354-13.386-1.512-6.294-6.065-15.21-9.193-15.07-2.941.13-2.603 12.35-1.34 17.601z"/></g><g fill="#ffdd0c" stroke="#5b2700"><path stroke-width="1.81706" d="M-20.288 874.377c3.25 7.95 8.832 10.701 13.544 8.775 4.71-1.927 6.767-7.8 3.516-15.75-2.603-6.368-10.209-14.434-15.288-13.04-4.778 1.31-3.945 14.702-1.772 20.015z"/><path stroke-width="1.3524118" d="M-16.824 872.813c3.059 7.48 6.963 10.62 9.732 9.488 2.769-1.132 3.355-6.108.296-13.588-2.45-5.992-8.303-14.114-11.372-13.502-2.888.576-.7 12.603 1.344 17.602z"/></g><g fill="#ffdd0c" stroke="#5b2700"><path stroke-width="1.81706" d="M-7.154 905.684c4.551 7.284 10.519 9.049 14.835 6.352 4.317-2.697 5.348-8.835.796-16.119-3.645-5.834-12.508-12.494-17.277-10.26-4.487 2.102-1.396 15.159 1.646 20.027z"/><path stroke-width="1.3524118" d="M-4.005 903.555c4.283 6.854 8.662 9.286 11.2 7.701 2.537-1.585 2.27-6.588-2.012-13.442-3.43-5.49-10.575-12.502-13.496-11.378-2.749 1.057 1.446 12.538 4.308 17.119z"/></g><g fill="#ffdd0c" stroke="#5b2700"><path stroke-width="1.81706" d="M16.462 909.14c4.55 7.284 10.519 9.048 14.835 6.351 4.317-2.697 5.347-8.834.796-16.118-3.645-5.834-12.508-12.494-17.277-10.26-4.487 2.102-1.396 15.159 1.646 20.027z"/><path stroke-width="1.3524118" d="M19.611 907.01c4.283 6.855 8.662 9.287 11.2 7.702 2.536-1.585 2.27-6.588-2.012-13.442-3.43-5.49-10.575-12.502-13.497-11.378-2.748 1.057 1.447 12.538 4.31 17.119z"/></g><g fill="#ffdd0c" stroke="#5b2700"><path stroke-width="1.81706" d="M40.077 906.26c4.552 7.284 10.52 9.049 14.836 6.351 4.317-2.697 5.347-8.834.796-16.118-3.645-5.834-12.508-12.494-17.277-10.26-4.487 2.102-1.396 15.159 1.645 20.027z"/><path stroke-width="1.3524118" d="M43.227 904.13c4.282 6.855 8.662 9.287 11.2 7.702 2.536-1.585 2.27-6.588-2.012-13.442-3.43-5.49-10.575-12.502-13.497-11.378-2.748 1.057 1.447 12.538 4.309 17.119z"/></g><g fill="#ffdd0c" stroke="#5b2700"><path stroke-width="1.81706" d="M25.036 874.919c3.755 7.724 9.503 10.11 14.08 7.885 4.578-2.226 6.252-8.22 2.496-15.944-3.008-6.187-11.117-13.747-16.095-12.03-4.684 1.617-2.991 14.927-.481 20.089z"/><path stroke-width="1.3524118" d="M28.393 873.135c3.533 7.268 7.631 10.15 10.322 8.842 2.69-1.308 2.954-6.31-.58-13.579-2.83-5.822-9.193-13.55-12.217-12.742-2.845.761.113 12.622 2.475 17.479z"/></g><g fill="#ffdd0c" stroke="#5b2700"><path stroke-width="1.81706" d="M5.056 877.782c3.194 7.973 8.756 10.764 13.481 8.871 4.725-1.892 6.823-7.751 3.63-15.724-2.559-6.387-10.106-14.506-15.195-13.15-4.788 1.278-4.05 14.675-1.916 20.003z"/><path stroke-width="1.3524118" d="M8.532 876.243c3.005 7.502 6.886 10.67 9.663 9.557 2.777-1.112 3.399-6.083.394-13.586-2.407-6.009-8.202-14.173-11.276-13.582-2.892.555-.79 12.597 1.219 17.61z"/></g><g fill="#ffdd0c" stroke="#5b2700"><path stroke-width="1.81706" d="M-6.983 845.758c2.339 8.265 7.577 11.624 12.475 10.238 4.897-1.386 7.6-6.992 5.26-15.256-1.872-6.62-8.525-15.488-13.728-14.672-4.895.766-5.57 14.167-4.007 19.69z"/><path stroke-width="1.3524118" d="M-3.364 844.592c2.2 7.777 5.727 11.334 8.606 10.52 2.878-.815 4.018-5.693 1.818-13.47-1.762-6.228-6.667-14.956-9.787-14.691-2.934.248-2.108 12.444-.637 17.641z"/></g><g fill="#ffdd0c" stroke="#5b2700"><path stroke-width="1.81706" d="M13.832 842.457c2.481 8.223 7.778 11.491 12.65 10.02 4.873-1.47 7.477-7.122 4.996-15.345-1.987-6.586-8.793-15.337-13.981-14.432-4.881.852-5.323 14.262-3.665 19.757z"/><path stroke-width="1.3524118" d="M17.43 841.229c2.335 7.737 5.923 11.233 8.787 10.369 2.864-.864 3.92-5.762 1.585-13.499-1.87-6.197-6.926-14.838-10.04-14.52-2.93.3-1.892 12.48-.332 17.65z"/></g><g fill="#ffdd0c" stroke="#5b2700"><path stroke-width="1.81706" d="M-15.236 812.186c.607 8.568 5.052 12.924 10.129 12.564 5.077-.36 8.864-5.298 8.257-13.865-.485-6.862-5.193-16.9-10.453-17.16-4.949-.247-8.338 12.735-7.933 18.461z"/><path stroke-width="1.3524118" d="M-11.456 811.782c.57 8.061 3.3 12.263 6.284 12.051 2.984-.21 5.094-4.755 4.523-12.816-.457-6.457-3.482-16-6.59-16.377-2.923-.354-4.598 11.754-4.217 17.142z"/></g><g fill="#ffdd0c" stroke="#5b2700"><path stroke-width="1.81706" d="M-13.166 778.394c-.76 8.556 2.938 13.561 8.008 14.012 5.07.45 9.592-3.825 10.352-12.38.608-6.853-2.448-17.51-7.6-18.602-4.847-1.028-10.252 11.253-10.76 16.97z"/><path stroke-width="1.3524118" d="M-9.37 778.594c-.715 8.05 1.313 12.631 4.293 12.896 2.98.265 5.783-3.887 6.499-11.937.572-6.448-.9-16.35-3.91-17.215-2.83-.813-6.404 10.876-6.882 16.256z"/></g><g fill="#ffdd0c" stroke="#5b2700"><path stroke-width="1.81706" d="M52.19 694.887c-6.377 5.754-7.072 11.938-3.662 15.717 3.41 3.78 9.633 3.722 16.01-2.032 5.107-4.609 10.116-14.499 7.083-18.804-2.853-4.05-15.169 1.274-19.43 5.119z"/><path stroke-width="1.3524118" d="M54.837 697.616c-6 5.414-7.63 10.151-5.627 12.372 2.005 2.222 6.884 1.086 12.884-4.328 4.806-4.337 10.463-12.597 8.846-15.277-1.522-2.522-12.093 3.615-16.103 7.233z"/></g><g fill="#ffdd0c" stroke="#5b2700"><path stroke-width="1.81706" d="M30.737 720.409c-4.257 7.46-2.981 13.551 1.44 16.073 4.42 2.523 10.313.52 14.57-6.94 3.408-5.975 5.071-16.936.843-20.076-3.978-2.954-14.009 5.957-16.853 10.943z"/><path stroke-width="1.3524118" d="M34.104 722.173c-4.005 7.02-4.07 12.029-1.472 13.511 2.598 1.483 6.877-1.123 10.882-8.143 3.208-5.622 5.996-15.238 3.621-17.277-2.234-1.92-10.354 7.217-13.03 11.909z"/></g><g fill="#ffdd0c" stroke="#5b2700"><path stroke-width="1.81706" d="M18.303 748.871c-2.479 8.224.127 13.875 5 15.345 4.873 1.469 10.168-1.8 12.648-10.024 1.985-6.587 1.154-17.642-3.67-19.756-4.538-1.99-12.32 8.94-13.978 14.435z"/><path stroke-width="1.3524118" d="M21.98 749.837c-2.333 7.738-1.276 12.635 1.588 13.499 2.865.863 6.452-2.634 8.785-10.372 1.868-6.197 2.434-16.193-.337-17.65-2.606-1.37-8.477 9.352-10.036 14.523z"/></g><g fill="#ffdd0c" stroke="#5b2700"><path stroke-width="1.81706" d="M10.809 779.21c-1.073 8.521 2.439 13.659 7.488 14.295 5.05.636 9.726-3.471 10.8-11.993.858-6.826-1.805-17.587-6.914-18.867-4.806-1.205-10.657 10.87-11.374 16.564z"/><path stroke-width="1.3524118" d="M14.595 779.548c-1.01 8.019.85 12.671 3.817 13.045 2.968.374 5.922-3.673 6.932-11.691.808-6.423-.3-16.372-3.276-17.347-2.798-.916-6.798 10.635-7.473 15.993z"/></g><g fill="#ffdd0c" stroke="#5b2700"><path stroke-width="1.81706" d="M8.238 808.776c.132 8.588 4.329 13.183 9.418 13.105 5.09-.078 9.144-4.8 9.012-13.387-.105-6.879-4.25-17.16-9.488-17.713-4.928-.52-9.03 12.256-8.942 17.995z"/><path stroke-width="1.3524118" d="M12.035 808.581c.124 8.081 2.616 12.427 5.607 12.381 2.991-.046 5.349-4.466 5.225-12.547-.099-6.472-2.591-16.168-5.673-16.716-2.9-.515-5.242 11.482-5.16 16.882z"/></g><g fill="#ffdd0c" stroke="#5b2700"><path stroke-width="1.81706" d="M73.624 649.228c-7.369 4.413-9.246 10.346-6.632 14.713 2.615 4.367 8.732 5.514 16.1 1.101 5.903-3.534 12.73-12.268 10.586-17.08-2.016-4.525-15.129-1.682-20.054 1.266z"/><path stroke-width="1.3524118" d="M75.693 652.418c-6.934 4.151-9.449 8.484-7.912 11.05 1.537 2.567 6.544 2.396 13.478-1.755 5.553-3.326 12.7-10.336 11.632-13.279-1.005-2.768-12.564 1.21-17.198 3.984z"/></g><g fill="#ffdd0c" stroke="#5b2700"><path stroke-width="1.81706" d="M49.073 668.116c-6.198 5.947-6.703 12.15-3.18 15.822 3.525 3.673 9.743 3.425 15.94-2.522 4.965-4.763 9.668-14.801 6.505-19.012-2.977-3.961-15.123 1.738-19.265 5.712z"/><path stroke-width="1.3524118" d="M51.802 670.763c-5.832 5.595-7.316 10.38-5.245 12.539 2.071 2.159 6.913.874 12.745-4.722 4.67-4.481 10.072-12.911 8.373-15.54-1.598-2.474-11.976 3.984-15.873 7.723z"/></g><g fill="#ffdd0c" stroke="#5b2700"><path stroke-width="1.81706" d="M24.472 691.172c-5.721 6.406-5.747 12.63-1.95 16.02 3.796 3.39 9.977 2.663 15.698-3.743 4.582-5.131 8.498-15.503 5.02-19.457-3.273-3.72-14.945 2.898-18.768 7.18z"/><path stroke-width="1.3524118" d="M27.397 693.6c-5.384 6.028-6.495 10.913-4.263 12.906 2.231 1.993 6.96.338 12.343-5.69 4.312-4.828 9.047-13.649 7.151-16.14-1.784-2.342-11.634 4.896-15.231 8.924z"/></g><g fill="#ffdd0c" stroke="#5b2700"><path stroke-width="1.81706" d="M5.032 718.151c-3.835 7.686-2.223 13.697 2.331 15.97 4.555 2.272 10.327-.055 14.162-7.74 3.071-6.156 4.122-17.192-.274-20.092-4.136-2.728-13.656 6.726-16.219 11.862z"/><path stroke-width="1.3524118" d="M8.493 719.725c-3.609 7.232-3.396 12.237-.72 13.573 2.678 1.336 6.805-1.504 10.413-8.736 2.89-5.792 5.14-15.547 2.655-17.452-2.337-1.791-9.937 7.783-12.348 12.615z"/></g><g fill="#ffdd0c" stroke="#5b2700"><path stroke-width="1.81706" d="M-5.615 747.1c-2.098 8.328.766 13.854 5.701 15.097 4.936 1.243 10.075-2.268 12.172-10.597 1.68-6.67.34-17.675-4.576-19.565-4.625-1.778-11.896 9.498-13.297 15.064z"/><path stroke-width="1.3524118" d="M-1.898 747.895c-1.973 7.837-.692 12.68 2.209 13.41 2.901.731 6.323-2.928 8.297-10.765 1.58-6.277 1.685-16.288-1.15-17.615-2.667-1.249-8.037 9.732-9.356 14.97z"/></g></g></svg>