<svg xmlns="http://www.w3.org/2000/svg" width="254mm" height="169.33333mm" viewBox="0 0 900 599.99998"><g transform="translate(273.041 -373.437)"><rect width="900" height="600" x="-273.04102" y="373.43716" ry="0" style="opacity:1;fill:#ce1126;fill-opacity:1;stroke:none;stroke-width:1;stroke-miterlimit:4;stroke-dasharray:none;stroke-opacity:1"/><g style="fill:#fff"><g style="fill:#fff"><path d="M-124.791 668.82c1.06 16.088 14.859 36.48 29.967 39.273v.28h240.877c-1.06-16.088-14.859-36.48-29.967-39.274v-.279h-210.91z" style="opacity:1;fill:#fff;fill-opacity:1;stroke:none;stroke-width:1;stroke-miterlimit:4;stroke-dasharray:none;stroke-opacity:1" transform="matrix(1 0 0 .96564 -1.094 25.989)"/><g style="fill:#fff"><path d="M186.25 343.383c1.06 16.087 14.859 36.48 29.967 39.273v.28h240.877c-1.06-16.088-14.859-36.48-29.967-39.274v-.28h-210.91z" style="opacity:1;fill:#fff;fill-opacity:1;stroke:none;stroke-width:1;stroke-miterlimit:4;stroke-dasharray:none;stroke-opacity:1" transform="matrix(1 0 0 .96564 -274.135 386.595)"/><path d="M-166.791 620.82c1.06 16.088 14.859 36.48 29.967 39.273v.28h240.877c-1.06-16.088-14.859-36.48-29.967-39.274v-.279h-210.91z" style="opacity:1;fill:#fff;fill-opacity:1;stroke:none;stroke-width:1;stroke-miterlimit:4;stroke-dasharray:none;stroke-opacity:1" transform="matrix(1 0 0 .96564 -1.094 25.989)"/></g></g><g style="fill:#fff"><path d="M-124.791 668.82c1.06 16.088 14.859 36.48 29.967 39.273v.28h240.877c-1.06-16.088-14.859-36.48-29.967-39.274v-.279h-210.91z" style="opacity:1;fill:#fff;fill-opacity:1;stroke:none;stroke-width:1;stroke-miterlimit:4;stroke-dasharray:none;stroke-opacity:1" transform="matrix(-1 0 0 .96564 355.012 25.989)"/><g style="fill:#fff"><path d="M186.25 343.383c1.06 16.087 14.859 36.48 29.967 39.273v.28h240.877c-1.06-16.088-14.859-36.48-29.967-39.274v-.28h-210.91z" style="opacity:1;fill:#fff;fill-opacity:1;stroke:none;stroke-width:1;stroke-miterlimit:4;stroke-dasharray:none;stroke-opacity:1" transform="matrix(-1 0 0 .96564 628.053 386.595)"/><path d="M-166.791 620.82c1.06 16.088 14.859 36.48 29.967 39.273v.28h240.877c-1.06-16.088-14.859-36.48-29.967-39.274v-.279h-210.91z" style="opacity:1;fill:#fff;fill-opacity:1;stroke:none;stroke-width:1;stroke-miterlimit:4;stroke-dasharray:none;stroke-opacity:1" transform="matrix(-1 0 0 .96564 355.012 25.989)"/></g></g></g><path d="M108.012 493.548a10.704 10.704 0 0 0-10.729 10.727 10.705 10.705 0 0 0 10.729 10.729h53.603L139.697 872.12c-34.424 6.336-70.062-33.535-88.926-64.805l11.502-4.48-29.257-27.91-5.403 41.414 10.631-4.143c42.914 98.907 106.847 90.835 138.715 138.871 31.867-48.036 95.8-39.964 138.715-138.871l10.63 4.143-5.402-41.415-29.257 27.91 11.501 4.481c-18.863 31.27-54.501 71.14-88.925 64.805l-21.918-357.117h53.605a10.704 10.704 0 0 0 10.727-10.729 10.702 10.702 0 0 0-10.727-10.727H108.012z" style="fill:#fff;fill-rule:evenodd;stroke:none;stroke-width:1px;stroke-linecap:butt;stroke-linejoin:miter;stroke-opacity:1"/><path d="M450 22.037a40.51 45.323 0 0 0-40.51 45.322A40.51 45.323 0 0 0 450 112.682a40.51 45.323 0 0 0 25.207-9.9l-13.342-13.128A24.065 25.67 0 0 1 450 93.03a24.065 25.67 0 0 1-24.064-25.67A24.065 25.67 0 0 1 450 41.69a24.065 25.67 0 0 1 24.064 25.67 24.065 25.67 0 0 1-2.898 12.205l12.754 12.547a40.51 45.323 0 0 0 6.59-24.752A40.51 45.323 0 0 0 450 22.037z" style="opacity:1;fill:#fff;fill-opacity:1;stroke:none;stroke-width:1;stroke-miterlimit:4;stroke-dasharray:none;stroke-opacity:1" transform="translate(-273.041 373.437)"/><path d="m266 811.934-89.275-49.325-93.706 46.83 18.822-101.69-72.994-73.105 102.529-13.523 45.35-92.012 46.166 93.332 102.024 16.24-75 71.204z" style="opacity:1;fill:#fff;fill-opacity:1;stroke:#ce1126;stroke-width:1.55604577;stroke-miterlimit:4;stroke-dasharray:none;stroke-opacity:1" transform="matrix(.9247 0 0 1.00493 13.39 -.014)"/><path d="M132.07 622.1 31.743 635.627l144.981 49.325Zm-29.083 85.295L84.852 806.99l91.873-122.038zm73.738 52.948 87.51 49.093-87.51-124.484zm72.056-50.844 73.213-69.913-145.269 45.366zm-26.606-86.097-45.45-92.3v153.85z" style="opacity:1;fill:#c8b41e;fill-opacity:1;stroke:none;stroke-width:1;stroke-miterlimit:4;stroke-dasharray:none;stroke-opacity:1" transform="matrix(.9247 0 0 1.00493 13.39 -.014)"/><path d="M496.713 100.246a37.399 26.446 70.102 0 0-4.104.412l4.125 4.059a6.16 6.16 0 0 1 1.598 2.709c2.731.359 5.69 1.492 8.713 3.556 1.55 1.06 3.08 2.372 4.545 3.877h7.36c.627 0 1.244.047 1.855.12a37.399 26.446 70.102 0 0-24.092-14.733zm-15.947 8.002a37.399 26.446 70.102 0 0-3.684 6.611h7.639c.33-.6.688-1.151 1.058-1.68l-5.013-4.93zm49.64 33.666a16.077 16.077 0 0 1-6.908 4.227c-.094 2.411-.417 4.697-.965 6.761-.505 1.903-1.172 3.587-1.959 5.067l3.658 7.113a37.399 26.446 70.102 0 0 6.174-23.168zm-52.185 4.904a37.399 26.446 70.102 0 0 34.394 25.602l-3.414-6.639c-3.35.12-7.163-.993-11.088-3.674-4.741-3.238-9.29-8.787-12.345-15.289h-7.547zm69.992 57.002a34.013 24.61 62.67 0 0-3.926.254l3.145 6.117c.03 0 .06-.004.091-.004 2.636.03 5.577.784 8.668 2.42 5.496 2.91 11.033 8.691 14.467 15.586 2.758 5.536 4.104 11.682 3.994 17.022h6.48a34.013 24.61 62.67 0 0-4.644-19.826 34.013 24.61 62.67 0 0-28.275-21.569zm-15.695 7.293a34.013 24.61 62.67 0 0-.391 35.627 34.013 24.61 62.67 0 0 4.326 6.996 41.341 41.341 0 0 1 5.28-3.715 39.229 39.229 0 0 1-3.776-6.09c-3.434-6.894-4.685-14.739-3.652-20.79.344-2.02.911-3.802 1.644-5.354l-3.431-6.674z" style="opacity:1;fill:#fff;fill-opacity:1;stroke:none;stroke-width:1.5;stroke-miterlimit:4;stroke-dasharray:none;stroke-opacity:1" transform="translate(-273.041 373.437)"/><rect width="6.3019423" height="50.415543" x="-194.00177" y="446.95816" ry="2.5854125" style="opacity:1;fill:#fff;fill-opacity:1;stroke:none;stroke-width:1.5;stroke-miterlimit:4;stroke-dasharray:none;stroke-opacity:1" transform="rotate(-45.47)"/><rect width="6.3019423" height="69.846519" x="-32.927727" y="579.93475" ry="3.5818729" style="opacity:1;fill:#fff;fill-opacity:1;stroke:none;stroke-width:1.5;stroke-miterlimit:4;stroke-dasharray:none;stroke-opacity:1" transform="rotate(-27.218)"/></g></svg>